Coordinates
version=1
nRows=26
nColumns=22
inDegrees=yes

Units are S.I. units (second, meters, Newtons, ...)
If the header above contains a line with 'inDegrees', this indicates whether rotational values are in degrees (yes) or radians (no).

endheader
time	pelvis_tilt	pelvis_list	pelvis_rotation	pelvis_tx	pelvis_ty	pelvis_tz	hip_flexion_r	hip_adduction_r	hip_rotation_r	knee_angle_r	ankle_angle_r	subtalar_angle_r	hip_flexion_l	hip_adduction_l	hip_rotation_l	knee_angle_l	ankle_angle_l	subtalar_angle_l	lumbar_extension	lumbar_bending	lumbar_rotation
      1.46000000	      0.71438456	     -2.28279519	     -3.65624737	      1.03628407	      0.92515631	      0.11611819	      1.75933562	      4.10098487	      1.72189739	    -13.75612661	      4.94346417	     -1.10624475	      0.86198505	     -3.89042887	    -12.20263298	    -14.65428118	      8.94576007	     -1.49705274	     -5.13753167	     -1.47411441	      2.19609755
      1.47000000	      0.59765344	     -2.25355356	     -3.70756638	      1.03515904	      0.92490492	      0.11666091	      2.24141709	      4.14463576	      1.75667986	    -14.28145032	      4.98189227	     -1.19471803	      1.30298914	     -3.94606585	    -12.14776624	    -15.12233034	      8.97782029	     -1.51199447	     -5.16694069	     -1.53137026	      2.33947761
      1.48000000	      0.49543784	     -2.21794004	     -3.75228774	      1.03393526	      0.92464235	      0.11722045	      2.72445374	      4.18277968	      1.78556665	    -14.82424091	      5.02678946	     -1.28654340	      1.74832854	     -3.99810111	    -12.08142956	    -15.61433462	      9.01180310	     -1.52488426	     -5.23165232	     -1.59224420	      2.50443528
      1.49000000	      0.36196531	     -2.18463249	     -3.79094306	      1.03263756	      0.92430604	      0.11783419	      3.25961244	      4.23531441	      1.83553753	    -15.39652649	      5.06930280	     -1.40383835	      2.23292019	     -4.05604513	    -11.97527352	    -16.10329097	      9.04074197	     -1.54266023	     -5.26717799	     -1.65073313	      2.65641040
      1.50000000	      0.25251153	     -2.14026721	     -3.82178344	      1.03126652	      0.92396523	      0.11846907	      3.77473936	      4.27801086	      1.87439899	    -15.96836943	      5.13557393	     -1.53204051	      2.71500349	     -4.10513673	    -11.86732092	    -16.62599472	      9.08132356	     -1.55489865	     -5.34301029	     -1.72332197	      2.82897485
      1.51000000	      0.15322414	     -2.08946257	     -3.84111830	      1.02983124	      0.92360053	      0.11912606	      4.28508368	      4.31711183	      1.90561950	    -16.54242719	      5.21678677	     -1.68147414	      3.20631353	     -4.15020441	    -11.74256469	    -17.17591569	      9.12823043	     -1.56716086	     -5.43943832	     -1.80425024	      3.00901483
      1.52000000	      0.05447209	     -2.04417637	     -3.84929681	      1.02831342	      0.92320661	      0.11980545	      4.80975906	      4.36876267	      1.93710828	    -17.13554065	      5.28361602	     -1.86760526	      3.70648589	     -4.19973839	    -11.58225327	    -17.72667096	      9.16087262	     -1.59025382	     -5.55103409	     -1.87481250	      3.17577598
      1.53000000	     -0.03340444	     -1.99643683	     -3.84527751	      1.02671770	      0.92278882	      0.12052232	      5.32832328	      4.42207155	      1.95401744	    -17.72594268	      5.36136976	     -2.08542153	      4.22284133	     -4.25004575	    -11.39700511	    -18.31918580	      9.19761396	     -1.62113567	     -5.68651496	     -1.95300817	      3.34686883
      1.54000000	     -0.11151850	     -1.95209556	     -3.82479180	      1.02502950	      0.92234422	      0.12126735	      5.84656706	      4.48236519	      1.95280563	    -18.32418884	      5.43905984	     -2.33397434	      4.76067563	     -4.30673863	    -11.18578536	    -18.95515482	      9.23329237	     -1.66122856	     -5.84992789	     -2.02942242	      3.51167437
      1.55000000	     -0.18701662	     -1.91174159	     -3.78469210	      1.02324488	      0.92186246	      0.12203723	      6.36846051	      4.55043953	      1.92976122	    -18.92110199	      5.50837006	     -2.61563315	      5.33538434	     -4.37116530	    -10.94488831	    -19.64759547	      9.26154851	     -1.71166951	     -6.03234802	     -2.10242902	      3.67622236
      1.56000000	     -0.26227832	     -1.87702898	     -3.72411044	      1.02136416	      0.92133916	      0.12284236	      6.89456350	      4.62812523	      1.88556373	    -19.51487024	      5.56833418	     -2.92572347	      5.95689510	     -4.44628340	    -10.67274558	    -20.40894330	      9.28008857	     -1.76958372	     -6.23028997	     -2.17337733	      3.83376418
      1.57000000	     -0.33960494	     -1.84785171	     -3.63594422	      1.01937686	      0.92077010	      0.12367617	      7.42318714	      4.71378262	      1.81832498	    -20.09687824	      5.62016007	     -3.25589761	      6.64059270	     -4.53276730	    -10.36565650	    -21.25870161	      9.28819725	     -1.82829019	     -6.44101659	     -2.24353731	      3.97959766
      1.58000000	     -0.42332343	     -1.82452593	     -3.51034902	      1.01728340	      0.92015129	      0.12451327	      7.95370244	      4.80365403	      1.71784754	    -20.65753997	      5.66563260	     -3.59834264	      7.40089693	     -4.63058306	    -10.03034171	    -22.20856583	      9.28033537	     -1.87940244	     -6.66060412	     -2.30834447	      4.10931237
      1.59000000	     -0.51278367	     -1.80663976	     -3.34445833	      1.01509007	      0.91948373	      0.12536488	      8.48175842	      4.89586794	      1.57978955	    -21.19139251	      5.70970505	     -3.94252908	      8.24383953	     -4.74074308	     -9.67322758	    -23.26830133	      9.25031836	     -1.91170671	     -6.88522671	     -2.37250859	      4.21629873
      1.60000000	     -0.61339990	     -1.79104560	     -3.13605693	      1.01279041	      0.91875747	      0.12622073	      9.01510031	      4.98492875	      1.40464900	    -21.70165677	      5.75576783	     -4.28642934	      9.18186756	     -4.85953612	     -9.30603821	    -24.44529272	      9.19564397	     -1.91138633	     -7.10804150	     -2.43788437	      4.29569126
      1.61000000	     -0.71490609	     -1.78126466	     -2.87978400	      1.01038268	      0.91798479	      0.12707422	      9.54295571	      5.07086580	      1.18714630	    -22.18852425	      5.81432900	     -4.60987558	     10.20956519	     -4.99200649	     -8.93983430	    -25.74705415	      9.11514111	     -1.85649264	     -7.33996548	     -2.50050173	      4.33913176
      1.62000000	     -0.81580367	     -1.77590280	     -2.57788479	      1.00788306	      0.91716748	      0.12792022	     10.06156137	      5.15070973	      0.92604516	    -22.64819780	      5.88756702	     -4.90482747	     11.31827733	     -5.13776576	     -8.59940099	    -27.16292131	      9.00780293	     -1.72217341	     -7.57656701	     -2.56025065	      4.35166009
      1.63000000	     -0.90285111	     -1.78155964	     -2.23524641	      1.00528251	      0.91631857	      0.12875824	     10.56307614	      5.22998592	      0.62482031	    -23.09304079	      5.97993635	     -5.16201050	     12.49272894	     -5.30469124	     -8.28564400	    -28.69332411	      8.87100222	     -1.48606179	     -7.83295643	     -2.61027427	      4.32845641
      1.64000000	     -0.96719823	     -1.80705983	     -1.85504276	      1.00259199	      0.91545384	      0.12956763	     11.03511404	      5.31633782	      0.28681424	    -23.51755013	      6.10381411	     -5.37632983	     13.71306463	     -5.50056019	     -7.99440018	    -30.32672978	      8.69838326	     -1.13736576	     -8.11435905	     -2.63438005	      4.27659391
      1.65000000	     -1.02806804	     -1.82658176	     -1.46951999	      0.99982827	      0.91454096	      0.13036873	     11.51554101	      5.38471781	     -0.08045577	    -23.95215667	      6.20877805	     -5.57347279	     14.97634553	     -5.70655128	     -7.77596648	    -32.04108463	      8.52726964	     -0.62386392	     -8.38677601	     -2.66508353	      4.20635103
      1.66000000	     -1.03337273	     -1.88085601	     -1.06286626	      0.99701881	      0.91367182	      0.13110412	     11.92280507	      5.47718165	     -0.46020710	    -24.35489449	      6.36482594	     -5.70977628	     16.20843764	     -5.94273401	     -7.53625744	    -33.81175603	      8.31318220	     -0.00732051	     -8.70812214	     -2.64729510	      4.12550579
      1.67000000	     -0.99353853	     -1.94568927	     -0.65885122	      0.99419287	      0.91284225	      0.13177687	     12.27450266	      5.57042200	     -0.83301250	    -24.73920320	      6.53865204	     -5.79284233	     17.38800898	     -6.18167380	     -7.28808595	    -35.60787631	      8.08937105	      0.71500188	     -9.05452176	     -2.60790860	      4.04267752
      1.68000000	     -0.90706465	     -2.00849723	     -0.28195022	      0.99138364	      0.91206785	      0.13239935	     12.57250547	      5.65287474	     -1.19026088	    -25.11677605	      6.72178684	     -5.82472853	     18.48099329	     -6.40224671	     -7.01277060	    -37.40836331	      7.86955254	      1.54608932	     -9.41745385	     -2.56207705	      3.97830937
      1.69000000	     -0.76655929	     -2.06513412	      0.07137921	      0.98862290	      0.91138392	      0.13296382	     12.80356644	      5.72043397	     -1.52625642	    -25.48052642	      6.89916142	     -5.81146357	     19.45615755	     -6.58839411	     -6.68087041	    -39.20519173	      7.68019769	      2.43190007	     -9.79702939	     -2.51637748	      3.91576352
      1.70000000	     -0.58255791	     -2.10653144	      0.38571708	      0.98592654	      0.91079141	      0.13347652	     12.97918205	      5.76237409	     -1.84678232	    -25.83397412	      7.05288538	     -5.77947336	     20.30632550	     -6.72832356	     -6.30016157	    -41.00641288	      7.53375181	      3.35416249	    -10.17658095	     -2.47921810	      3.86006402
      1.71000000	     -0.36343265	     -2.12909519	      0.65518566	      0.98329744	      0.91028761	      0.13397595	     13.11047654	      5.77965843	     -2.13415526	    -26.18468952	      7.16214651	     -5.76086409	     21.02988029	     -6.82238606	     -5.88219647	    -42.82850690	      7.43399404	      4.28979107	    -10.54452404	     -2.46366991	      3.81568286
